<?xml version="1.0" standalone="no"?><!DOCTYPE svg PUBLIC "-//W3C//DTD SVG 1.1//EN" "http://www.w3.org/Graphics/SVG/1.1/DTD/svg11.dtd"><svg height="1024" legacy-metrics="false" node-id="1" sillyvg="true" template-height="1024" template-width="1024" version="1.1" viewBox="0 0 1024 1024" width="1024" xmlns="http://www.w3.org/2000/svg" xmlns:xlink="http://www.w3.org/1999/xlink"><defs node-id="464"></defs><g node-id="1040"><path d="M 794.89 623.62 L 882.60 619.32 L 908.69 616.06 L 912.20 614.22 L 908.70 612.40 L 882.62 609.25 L 794.89 605.31 L 670.64 602.42 L 511.75 601.35 L 352.86 602.42 L 228.61 605.31 L 140.89 609.25 L 114.81 612.40 L 111.30 614.22 L 114.81 616.06 L 140.90 619.32 L 228.61 623.62 L 350.63 626.14 L 511.75 627.09 L 672.87 626.14 L 794.89 623.62 Z" fill="#1d1d1b" fill-opacity="0.09803922" fill-rule="nonzero" group-id="1" node-id="468" stroke-linecap="butt" stroke-width="9.899918" target-height="25.739807" target-width="800.9033" target-x="111.3" target-y="601.35"></path></g><g node-id="1041"><path d="M 745.95 478.10 L 754.86 458.79 L 680.61 462.26 L 675.56 463.24 L 671.21 466.22 L 668.62 470.53 L 667.74 475.62 L 745.95 478.10 Z" fill="#c44645" fill-rule="nonzero" group-id="2" node-id="473" stroke-linecap="butt" stroke-width="9.899918" target-height="19.30484" target-width="87.11963" target-x="667.7434" target-y="458.7918"></path></g><g node-id="1042"><path d="M 866.73 505.82 L 841.07 492.25 L 810.65 481.75 L 774.66 474.63 L 648.93 467.70 L 584.09 428.10 L 557.51 414.94 L 529.13 407.03 L 498.46 404.34 L 423.22 404.34 L 398.75 405.92 L 375.74 410.55 L 353.92 418.20 L 287.59 445.92 L 134.14 456.81 L 128.69 458.30 L 124.24 461.76 L 121.79 466.62 L 121.27 472.65 L 121.76 480.08 L 122.26 482.55 L 125.23 512.25 L 125.72 514.73 L 127.21 531.06 L 127.21 531.56 L 128.69 546.90 L 132.59 560.47 L 140.61 570.29 L 153.44 577.10 L 190.07 589.47 L 194.03 590.46 L 903.86 590.46 L 912.77 562.25 L 907.05 546.91 L 897.82 532.52 L 884.62 518.84 L 866.73 505.82 Z" fill="#f9b659" fill-rule="nonzero" group-id="3" node-id="478" stroke-linecap="butt" stroke-width="9.899918" target-height="186.1185" target-width="791.4983" target-x="121.26831" target-y="404.34225"></path></g><g node-id="1043"><path d="M 823.17 491.46 L 823.54 502.43 L 829.11 515.72 L 837.28 526.12 L 846.44 534.03 L 875.73 543.17 L 900.39 546.90 L 889.07 530.74 L 873.08 516.12 L 851.52 502.96 L 823.17 491.46 Z" fill="#fdfdfd" fill-rule="nonzero" group-id="4" node-id="483" stroke-linecap="butt" stroke-width="9.899918" target-height="55.439606" target-width="77.21924" target-x="823.17236" target-y="491.46152"></path></g><g node-id="1044"><path d="M 420.74 412.26 L 402.59 414.49 L 383.61 421.48 L 363.32 434.04 L 339.56 455.82 L 345.50 516.71 L 349.82 534.56 L 357.99 550.08 L 370.25 563.73 L 385.01 574.19 L 401.33 580.41 L 419.75 582.54 L 624.18 582.54 L 631.12 581.30 L 637.05 577.59 L 641.15 571.62 L 642.50 564.72 L 644.97 475.13 L 579.63 435.03 L 554.09 422.37 L 527.19 414.82 L 498.46 412.26 L 420.74 412.26 Z" fill="#fdfdfd" fill-rule="nonzero" group-id="5" node-id="488" stroke-linecap="butt" stroke-width="9.899918" target-height="170.2786" target-width="305.4126" target-x="339.56128" target-y="412.26218"></path></g><g node-id="1045"><path d="M 371.74 433.55 L 356.90 444.64 L 345.01 456.32 L 350.95 514.73 L 354.83 531.31 L 362.34 545.69 L 373.72 558.29 L 387.71 567.95 L 402.91 573.67 L 419.75 575.61 L 624.18 575.61 L 629.20 574.72 L 633.09 572.15 L 636.10 567.87 L 637.05 563.24 L 639.03 476.61 L 576.66 438.50 L 552.73 426.19 L 526.84 418.76 L 498.46 416.22 L 420.25 416.22 L 405.22 417.98 L 389.18 423.53 L 371.74 433.55 Z" fill="#c44645" fill-rule="nonzero" group-id="6" node-id="493" stroke-linecap="butt" stroke-width="9.899918" target-height="159.38867" target-width="294.0276" target-x="345.00635" target-y="416.22217"></path></g><g node-id="1046"><path d="M 347.98 458.79 L 625.67 473.15 L 575.67 441.96 L 551.20 430.11 L 525.59 423.06 L 498.46 420.68 L 438.07 420.68 L 438.07 420.18 L 420.74 420.68 L 406.00 422.31 L 390.60 427.42 L 374.21 436.52 L 359.81 447.18 L 347.98 458.79 Z" fill="#403430" fill-rule="nonzero" group-id="7" node-id="498" stroke-linecap="butt" stroke-width="9.899918" target-height="52.96454" target-width="277.69263" target-x="347.97632" target-y="420.18216"></path></g><g node-id="1047"><path d="M 772.68 490.97 L 762.29 489.98 L 744.00 492.27 L 728.03 498.96 L 713.78 510.27 L 702.74 524.47 L 696.21 540.29 L 693.98 558.29 L 693.98 590.46 L 830.10 590.46 L 830.10 558.29 L 828.27 542.05 L 822.88 527.34 L 813.77 513.74 L 801.90 502.81 L 788.33 495.29 L 772.68 490.97 Z" fill="#403430" fill-rule="nonzero" group-id="8" node-id="503" stroke-linecap="butt" stroke-width="9.899918" target-height="100.48419" target-width="136.12378" target-x="693.9785" target-y="489.97656"></path></g><g node-id="1048"><path d="M 334.12 558.29 L 332.29 542.05 L 326.89 527.34 L 317.78 513.74 L 305.91 502.81 L 292.34 495.29 L 276.70 490.97 L 266.30 489.98 L 248.01 492.27 L 232.04 498.96 L 217.79 510.27 L 206.75 524.47 L 200.22 540.29 L 197.99 558.29 L 197.99 590.46 L 334.12 590.46 L 334.12 558.29 Z" fill="#403430" fill-rule="nonzero" group-id="9" node-id="508" stroke-linecap="butt" stroke-width="9.899918" target-height="100.48419" target-width="136.12378" target-x="197.99268" target-y="489.97656"></path></g><g node-id="1049"><path d="M 359.86 472.65 L 355.28 473.65 L 352.93 479.09 L 354.49 483.74 L 359.36 486.02 L 384.61 487.01 L 389.80 485.27 L 391.54 480.08 L 390.54 475.50 L 385.10 473.15 L 359.86 472.65 Z" fill="#403430" fill-rule="nonzero" group-id="10" node-id="513" stroke-linecap="butt" stroke-width="9.899918" target-height="14.354889" target-width="38.60962" target-x="352.92627" target-y="472.6517"></path></g><g node-id="1050"><path d="M 912.77 562.25 L 878.61 562.25 L 871.20 563.57 L 866.11 567.26 L 862.77 573.63 L 857.33 590.46 L 903.86 590.46 L 912.77 562.25 Z" fill="#c44645" fill-rule="nonzero" group-id="11" node-id="518" stroke-linecap="butt" stroke-width="9.899918" target-height="28.214783" target-width="55.439453" target-x="857.32715" target-y="562.246"></path></g><g node-id="1051"><path d="M 872.18 579.57 L 895.94 579.57 L 897.92 573.14 L 878.61 573.14 L 874.99 574.15 L 873.17 577.10 L 872.18 579.57 Z" fill="#ffffff" fill-rule="nonzero" group-id="12" node-id="523" stroke-linecap="butt" stroke-width="9.899918" target-height="6.4349365" target-width="25.739502" target-x="872.177" target-y="573.13586"></path></g><g node-id="1052"><path d="M 158.39 531.56 L 127.21 531.56 L 128.69 546.90 L 132.59 560.47 L 140.61 570.29 L 153.44 577.10 L 190.07 589.47 L 183.14 552.35 L 180.30 544.19 L 174.73 537.50 L 166.86 533.02 L 158.39 531.56 Z" fill="#c44645" fill-rule="nonzero" group-id="13" node-id="528" stroke-linecap="butt" stroke-width="9.899918" target-height="57.91455" target-width="62.864258" target-x="127.20825" target-y="531.5562"></path></g><g node-id="1053"><path d="M 333.13 494.93 L 330.63 486.35 L 325.21 479.58 L 317.24 474.74 L 308.38 473.15 L 228.19 473.15 L 263.86 475.76 L 288.36 479.94 L 304.42 485.03 L 316.79 491.97 L 326.94 501.59 L 335.11 514.23 L 333.13 494.93 Z" fill="#d69943" fill-rule="nonzero" group-id="14" node-id="533" stroke-linecap="butt" stroke-width="9.899918" target-height="41.084686" target-width="106.91919" target-x="228.18726" target-y="473.1467"></path></g><g node-id="1054"><path d="M 742.98 484.04 L 725.66 484.04 L 710.95 487.09 L 699.80 493.84 L 691.37 504.50 L 685.56 520.17 L 683.21 537.03 L 684.08 553.83 L 689.47 528.86 L 696.73 511.50 L 705.36 499.88 L 714.02 493.29 L 726.22 487.92 L 742.98 484.04 Z" fill="#d69943" fill-rule="nonzero" group-id="15" node-id="538" stroke-linecap="butt" stroke-width="9.899918" target-height="69.794464" target-width="59.771973" target-x="683.21094" target-y="484.0366"></path></g><g node-id="1055"><path d="M 176.21 404.34 L 181.16 453.84 L 214.82 453.35 L 197.99 404.34 L 176.21 404.34 Z" fill="#d69943" fill-rule="nonzero" group-id="16" node-id="543" stroke-linecap="butt" stroke-width="9.899918" target-height="49.499603" target-width="38.60962" target-x="176.21265" target-y="404.34225"></path></g><g node-id="1056"><path d="M 121.76 480.08 L 122.26 482.55 L 125.23 512.25 L 125.72 514.73 L 137.11 514.73 L 142.46 513.60 L 146.51 510.27 L 149.15 505.18 L 148.99 500.37 L 147.01 489.98 L 143.33 482.58 L 135.13 480.08 L 121.76 480.08 Z" fill="#ffffff" fill-rule="nonzero" group-id="17" node-id="548" stroke-linecap="butt" stroke-width="9.899918" target-height="34.64972" target-width="27.381836" target-x="121.76318" target-y="480.07666"></path></g><g node-id="1057"><path d="M 207.40 409.79 L 215.95 406.41 L 219.69 402.37 L 220.27 397.41 L 220.27 396.92 L 140.08 396.92 L 138.10 398.90 L 139.58 400.88 L 182.65 410.28 L 195.01 411.40 L 207.40 409.79 Z" fill="#c44645" fill-rule="nonzero" group-id="18" node-id="553" stroke-linecap="butt" stroke-width="9.899918" target-height="14.478882" target-width="82.16943" target-x="138.0979" target-y="396.91733"></path></g><g node-id="1058"><path d="M 135.13 482.55 L 122.26 482.55 L 125.23 512.25 L 137.11 512.25 L 141.18 511.39 L 144.53 508.79 L 146.51 505.07 L 146.51 500.87 L 144.53 490.47 L 141.12 484.48 L 135.13 482.55 Z" fill="#c44645" fill-rule="nonzero" group-id="19" node-id="558" stroke-linecap="butt" stroke-width="9.899918" target-height="29.699768" target-width="24.254639" target-x="122.2583" target-y="482.55164"></path></g><g node-id="1059"><path d="M 627.65 473.64 L 624.18 462.26 L 620.41 456.72 L 617.25 454.34 L 612.80 483.05 L 615.27 483.05 L 624.18 481.07 L 626.98 478.33 L 627.65 473.64 Z" fill="#d69943" fill-rule="nonzero" group-id="20" node-id="563" stroke-linecap="butt" stroke-width="9.899918" target-height="28.709747" target-width="14.8498535" target-x="612.7991" target-y="454.33685"></path></g><g node-id="1060"><path d="M 903.80 590.45 L 912.71 562.23 L 127.15 531.05 L 127.15 531.54 L 128.63 546.89 L 132.54 560.46 L 140.55 570.28 L 153.38 577.08 L 190.01 589.46 L 193.97 590.45 L 903.80 590.45 Z" fill="#1d1d1b" fill-opacity="0.09803922" fill-rule="nonzero" group-id="21" node-id="568" stroke-linecap="butt" stroke-width="9.899918" target-height="59.399475" target-width="785.5585" target-x="127.15" target-y="531.05"></path></g><g node-id="1061"><path d="M 766.74 501.36 L 765.26 498.39 L 765.26 497.90 L 758.82 497.90 L 759.32 498.39 L 760.31 499.88 L 760.31 503.84 L 756.84 504.33 L 756.84 501.36 L 754.86 498.89 L 754.37 498.39 L 747.93 499.38 L 749.91 501.36 L 750.41 504.83 L 747.44 505.82 L 746.45 502.85 L 745.95 502.35 L 744.47 501.36 L 744.47 500.87 L 743.97 500.87 L 738.03 502.85 L 738.53 503.34 L 740.01 504.33 L 741.50 507.80 L 738.53 509.28 L 737.04 506.31 L 734.57 504.83 L 734.07 504.83 L 728.63 507.80 L 729.12 508.29 L 729.62 508.29 L 730.61 508.79 L 732.59 512.25 L 730.11 514.23 L 728.13 511.76 L 725.66 510.77 L 725.16 510.77 L 725.16 510.27 L 720.21 514.73 L 720.71 514.73 L 722.19 515.22 L 725.16 518.19 L 722.69 520.17 L 720.71 518.19 L 717.74 517.70 L 716.75 517.70 L 712.79 522.65 L 715.26 522.65 L 718.23 525.12 L 716.25 527.60 L 713.78 526.11 L 710.31 526.11 L 707.34 531.56 L 709.82 531.56 L 713.28 533.04 L 711.80 536.01 L 708.83 535.02 L 707.84 535.02 L 706.35 535.52 L 705.36 535.52 L 703.38 541.46 L 703.88 541.46 L 705.36 540.96 L 709.32 541.95 L 708.33 545.42 L 705.36 544.43 L 702.89 545.42 L 702.39 545.42 L 701.90 545.91 L 700.91 551.85 L 701.90 551.85 L 703.38 550.86 L 707.34 551.36 L 706.85 554.82 L 703.88 554.33 L 701.40 555.81 L 700.91 556.31 L 700.41 557.79 L 700.91 562.74 L 701.40 562.25 L 702.89 561.26 L 706.35 561.26 L 706.85 564.23 L 703.88 564.72 L 701.90 566.70 L 701.40 566.70 L 700.91 567.20 L 701.90 572.64 L 702.39 573.14 L 703.88 571.65 L 707.84 570.66 L 708.33 574.13 L 705.86 574.62 L 704.87 575.61 L 703.88 577.10 L 703.38 577.59 L 705.36 583.53 L 705.86 583.04 L 706.85 581.55 L 710.31 580.07 L 711.80 583.04 L 709.32 584.52 L 707.84 586.50 L 707.34 587.00 L 707.34 587.49 L 710.81 592.94 L 710.81 592.44 L 711.30 591.95 L 711.80 590.96 L 714.77 588.48 L 716.75 591.45 L 714.27 592.94 L 713.28 595.91 L 713.28 596.40 L 717.24 601.35 L 717.24 600.36 L 717.74 598.88 L 720.71 596.40 L 723.18 598.88 L 721.20 600.86 L 720.21 603.83 L 720.21 604.32 L 725.16 608.28 L 725.16 606.30 L 727.64 602.84 L 730.61 604.82 L 728.63 607.29 L 728.63 610.76 L 734.07 614.22 L 734.07 611.75 L 736.05 608.28 L 739.02 609.77 L 737.54 612.24 L 737.54 613.23 L 738.03 615.21 L 738.03 615.71 L 744.47 618.18 L 743.97 617.19 L 743.48 615.71 L 744.96 612.24 L 747.93 613.23 L 747.44 615.71 L 747.93 618.68 L 748.43 618.68 L 748.43 619.17 L 754.86 620.16 L 754.37 619.67 L 753.87 618.18 L 754.37 614.22 L 757.34 614.72 L 757.34 617.69 L 758.82 620.16 L 758.82 620.66 L 765.26 620.66 L 764.76 620.16 L 764.27 618.68 L 763.77 614.72 L 767.24 614.72 L 767.24 617.69 L 769.22 619.67 L 769.22 620.16 L 769.71 620.16 L 776.15 619.17 L 775.65 618.68 L 774.17 617.69 L 773.67 613.73 L 776.64 612.74 L 777.63 615.71 L 780.11 618.18 L 786.05 615.71 L 785.55 615.21 L 784.07 614.72 L 782.58 610.76 L 785.55 609.27 L 787.04 612.24 L 789.51 613.73 L 790.01 614.22 L 795.45 610.76 L 794.96 610.26 L 794.46 610.26 L 793.47 609.77 L 791.49 606.30 L 793.97 604.82 L 795.95 606.80 L 798.42 607.79 L 798.92 608.28 L 802.38 605.81 L 803.87 604.32 L 803.37 603.83 L 801.89 603.33 L 798.92 600.86 L 801.39 598.38 L 803.37 600.36 L 806.34 600.86 L 807.33 600.86 L 811.29 596.40 L 810.30 595.91 L 808.82 595.91 L 805.85 593.43 L 807.83 590.96 L 810.30 592.44 L 813.77 592.44 L 816.74 587.00 L 816.24 587.00 L 814.26 587.49 L 810.80 585.51 L 812.28 582.54 L 815.25 583.53 L 817.73 583.53 L 818.22 583.04 L 818.72 583.04 L 820.70 577.10 L 820.20 577.59 L 818.72 577.59 L 814.76 576.60 L 815.75 573.63 L 818.72 574.13 L 821.19 573.14 L 822.18 573.14 L 823.17 566.70 L 822.18 567.20 L 820.70 567.69 L 817.23 567.20 L 817.23 563.73 L 820.20 564.23 L 822.68 562.74 L 823.17 562.74 L 823.17 562.25 L 823.67 560.76 L 823.17 555.81 L 821.69 557.30 L 817.73 557.30 L 817.23 554.33 L 820.20 553.83 L 822.18 552.35 L 822.68 551.85 L 823.17 551.85 L 821.69 545.42 L 820.20 546.90 L 816.24 547.89 L 815.75 544.92 L 818.22 543.93 L 820.70 541.46 L 820.70 540.96 L 818.72 535.02 L 818.22 536.01 L 817.23 537.00 L 813.77 538.49 L 812.28 535.52 L 814.76 534.53 L 816.24 532.05 L 816.74 531.56 L 816.74 531.06 L 813.27 525.62 L 813.27 526.61 L 812.78 528.09 L 809.31 530.07 L 807.33 527.10 L 809.81 525.62 L 810.80 523.14 L 810.80 522.15 L 806.84 517.20 L 806.84 518.19 L 806.34 519.68 L 803.37 522.15 L 800.90 519.68 L 803.37 517.70 L 803.87 515.22 L 803.87 514.23 L 798.92 510.27 L 798.92 512.75 L 796.44 515.72 L 793.47 513.74 L 795.45 511.26 L 795.45 507.80 L 790.01 504.33 L 790.01 506.81 L 788.03 510.27 L 785.06 508.79 L 786.54 506.31 L 786.54 505.32 L 786.05 503.34 L 786.05 502.85 L 779.61 500.37 L 780.11 501.36 L 780.60 502.85 L 779.12 506.81 L 776.15 505.82 L 776.64 502.85 L 776.15 500.37 L 775.65 499.88 L 775.65 499.38 L 769.22 498.39 L 769.71 498.89 L 770.21 500.37 L 769.71 504.33 L 766.74 503.84 L 766.74 501.36 Z" fill="#1d1715" fill-rule="nonzero" group-id="22" node-id="573" stroke-linecap="butt" stroke-width="9.899918" target-height="122.75903" target-width="123.25391" target-x="700.4133" target-y="497.89648"></path></g><g node-id="1062"><path d="M 809.81 525.62 L 807.33 527.10 L 809.31 530.07 L 812.78 528.09 L 813.27 526.61 L 810.80 523.14 L 809.81 525.62 Z" fill="#403430" fill-rule="nonzero" group-id="23" node-id="578" stroke-linecap="butt" stroke-width="9.899918" target-height="6.9299316" target-width="5.9399414" target-x="807.3325" target-y="523.1413"></path></g><g node-id="1063"><path d="M 810.80 560.76 L 809.52 547.77 L 805.11 536.19 L 797.43 525.62 L 787.45 517.57 L 776.20 512.67 L 763.28 510.77 L 750.61 512.04 L 739.19 516.43 L 728.63 524.13 L 720.53 534.11 L 715.46 545.37 L 713.28 558.29 L 714.57 571.26 L 718.99 582.67 L 726.65 592.94 L 736.93 601.03 L 748.19 605.91 L 760.80 607.79 L 773.47 606.79 L 784.89 602.57 L 795.45 594.92 L 803.80 584.90 L 808.85 573.65 L 810.80 560.76 Z" fill="#403430" fill-rule="nonzero" group-id="24" node-id="583" stroke-linecap="butt" stroke-width="9.899918" target-height="97.019196" target-width="97.51416" target-x="713.2832" target-y="510.7664"></path></g><g node-id="1064"><path d="M 801.39 598.38 L 798.92 600.86 L 801.89 603.33 L 803.37 603.83 L 806.34 600.86 L 803.37 600.36 L 801.39 598.38 Z" fill="#403430" fill-rule="nonzero" group-id="25" node-id="588" stroke-linecap="butt" stroke-width="9.899918" target-height="5.4449463" target-width="7.4248047" target-x="798.9175" target-y="598.3807"></path></g><g node-id="1065"><path d="M 807.83 590.96 L 805.85 593.43 L 808.82 595.91 L 810.30 595.91 L 812.78 592.44 L 810.30 592.44 L 807.83 590.96 Z" fill="#403430" fill-rule="nonzero" group-id="26" node-id="593" stroke-linecap="butt" stroke-width="9.899918" target-height="4.949951" target-width="6.930176" target-x="805.8474" target-y="590.95575"></path></g><g node-id="1066"><path d="M 782.58 610.76 L 784.07 614.72 L 785.55 615.21 L 789.51 613.73 L 787.04 612.24 L 785.55 609.27 L 782.58 610.76 Z" fill="#403430" fill-rule="nonzero" group-id="27" node-id="598" stroke-linecap="butt" stroke-width="9.899918" target-height="5.9399414" target-width="6.930176" target-x="782.5825" target-y="609.27057"></path></g><g node-id="1067"><path d="M 793.47 609.77 L 794.46 610.26 L 794.96 610.26 L 798.42 607.79 L 795.95 606.80 L 793.97 604.82 L 791.49 606.30 L 793.47 609.77 Z" fill="#403430" fill-rule="nonzero" group-id="28" node-id="603" stroke-linecap="butt" stroke-width="9.899918" target-height="5.4449463" target-width="6.930176" target-x="791.49243" target-y="604.8156"></path></g><g node-id="1068"><path d="M 812.28 582.54 L 810.80 585.51 L 814.26 587.49 L 816.24 587.00 L 817.73 583.53 L 815.25 583.53 L 812.28 582.54 Z" fill="#403430" fill-rule="nonzero" group-id="29" node-id="608" stroke-linecap="butt" stroke-width="9.899918" target-height="4.950012" target-width="6.930176" target-x="810.79736" target-y="582.5408"></path></g><g node-id="1069"><path d="M 820.20 553.83 L 817.23 554.33 L 817.73 557.30 L 821.69 557.30 L 822.68 556.31 L 822.18 552.35 L 820.20 553.83 Z" fill="#403430" fill-rule="nonzero" group-id="30" node-id="613" stroke-linecap="butt" stroke-width="9.899918" target-height="4.949951" target-width="5.4450684" target-x="817.2324" target-y="552.34607"></path></g><g node-id="1070"><path d="M 773.67 613.73 L 774.17 617.69 L 775.65 618.68 L 779.61 617.69 L 777.63 615.71 L 776.64 612.74 L 773.67 613.73 Z" fill="#403430" fill-rule="nonzero" group-id="31" node-id="618" stroke-linecap="butt" stroke-width="9.899918" target-height="5.9400024" target-width="5.9399414" target-x="773.67285" target-y="612.73553"></path></g><g node-id="1071"><path d="M 815.75 573.63 L 814.76 576.60 L 818.72 577.59 L 820.20 577.59 L 821.19 573.14 L 818.72 574.13 L 815.75 573.63 Z" fill="#403430" fill-rule="nonzero" group-id="32" node-id="623" stroke-linecap="butt" stroke-width="9.899918" target-height="4.454956" target-width="6.4348145" target-x="814.7573" target-y="573.13586"></path></g><g node-id="1072"><path d="M 818.22 543.93 L 815.75 544.92 L 816.24 547.89 L 820.20 546.90 L 821.19 545.91 L 820.20 541.95 L 818.22 543.93 Z" fill="#403430" fill-rule="nonzero" group-id="33" node-id="628" stroke-linecap="butt" stroke-width="9.899918" target-height="5.9399414" target-width="5.444824" target-x="815.7473" target-y="541.9512"></path></g><g node-id="1073"><path d="M 814.76 534.53 L 812.28 535.52 L 813.77 538.49 L 817.23 537.00 L 818.22 536.01 L 816.24 532.05 L 814.76 534.53 Z" fill="#403430" fill-rule="nonzero" group-id="34" node-id="633" stroke-linecap="butt" stroke-width="9.899918" target-height="6.4349365" target-width="5.9399414" target-x="812.2825" target-y="532.0512"></path></g><g node-id="1074"><path d="M 820.20 564.23 L 817.23 563.73 L 817.23 567.20 L 820.70 567.69 L 822.18 567.20 L 822.68 562.74 L 820.20 564.23 Z" fill="#403430" fill-rule="nonzero" group-id="35" node-id="638" stroke-linecap="butt" stroke-width="9.899918" target-height="4.949951" target-width="5.4450684" target-x="817.2324" target-y="562.74097"></path></g><g node-id="1075"><path d="M 714.27 592.94 L 716.75 591.45 L 714.77 588.48 L 711.80 590.96 L 711.30 591.95 L 710.81 592.44 L 713.28 595.91 L 714.27 592.94 Z" fill="#403430" fill-rule="nonzero" group-id="36" node-id="643" stroke-linecap="butt" stroke-width="9.899918" target-height="7.4249268" target-width="5.9401855" target-x="710.8081" target-y="588.4808"></path></g><g node-id="1076"><path d="M 710.31 580.07 L 706.85 581.55 L 705.86 583.04 L 707.84 586.50 L 709.32 584.52 L 711.80 583.04 L 710.31 580.07 Z" fill="#403430" fill-rule="nonzero" group-id="37" node-id="648" stroke-linecap="butt" stroke-width="9.899918" target-height="6.4349976" target-width="5.9401855" target-x="705.85815" target-y="580.0658"></path></g><g node-id="1077"><path d="M 763.77 614.72 L 764.27 618.68 L 764.76 620.16 L 769.22 619.67 L 767.24 617.69 L 767.24 614.72 L 763.77 614.72 Z" fill="#403430" fill-rule="nonzero" group-id="38" node-id="653" stroke-linecap="butt" stroke-width="9.899918" target-height="5.4449463" target-width="5.444824" target-x="763.77295" target-y="614.7155"></path></g><g node-id="1078"><path d="M 720.71 596.40 L 717.74 598.88 L 717.24 600.36 L 720.21 603.83 L 721.20 600.86 L 723.18 598.88 L 720.71 596.40 Z" fill="#403430" fill-rule="nonzero" group-id="39" node-id="658" stroke-linecap="butt" stroke-width="9.899918" target-height="7.4249268" target-width="5.9399414" target-x="717.24316" target-y="596.4007"></path></g><g node-id="1079"><path d="M 702.89 561.26 L 701.40 562.25 L 701.90 566.70 L 703.88 564.72 L 706.85 564.23 L 706.35 561.26 L 702.89 561.26 Z" fill="#403430" fill-rule="nonzero" group-id="40" node-id="663" stroke-linecap="butt" stroke-width="9.899918" target-height="5.4449463" target-width="5.444824" target-x="701.40356" target-y="561.256"></path></g><g node-id="1080"><path d="M 707.84 570.66 L 703.88 571.65 L 702.89 572.64 L 703.88 577.10 L 704.87 575.61 L 705.86 574.62 L 708.33 574.13 L 707.84 570.66 Z" fill="#403430" fill-rule="nonzero" group-id="41" node-id="668" stroke-linecap="butt" stroke-width="9.899918" target-height="6.4349365" target-width="5.444824" target-x="702.8884" target-y="570.6609"></path></g><g node-id="1081"><path d="M 744.96 612.24 L 743.48 615.71 L 743.97 617.19 L 747.93 618.68 L 747.44 615.71 L 747.93 613.23 L 744.96 612.24 Z" fill="#403430" fill-rule="nonzero" group-id="42" node-id="673" stroke-linecap="butt" stroke-width="9.899918" target-height="6.4349976" target-width="4.454834" target-x="743.478" target-y="612.24054"></path></g><g node-id="1082"><path d="M 754.37 614.22 L 753.87 618.18 L 754.37 619.67 L 758.82 620.16 L 757.34 617.69 L 757.34 614.72 L 754.37 614.22 Z" fill="#403430" fill-rule="nonzero" group-id="43" node-id="678" stroke-linecap="butt" stroke-width="9.899918" target-height="5.9398804" target-width="4.9501953" target-x="753.8728" target-y="614.2206"></path></g><g node-id="1083"><path d="M 736.05 608.28 L 734.07 611.75 L 734.07 613.23 L 738.03 615.21 L 737.54 613.23 L 737.54 612.24 L 739.02 609.77 L 736.05 608.28 Z" fill="#403430" fill-rule="nonzero" group-id="44" node-id="683" stroke-linecap="butt" stroke-width="9.899918" target-height="6.9298706" target-width="4.949951" target-x="734.073" target-y="608.28064"></path></g><g node-id="1084"><path d="M 727.64 602.84 L 725.16 606.30 L 725.16 607.79 L 728.63 610.26 L 728.63 607.29 L 730.61 604.82 L 727.64 602.84 Z" fill="#403430" fill-rule="nonzero" group-id="45" node-id="688" stroke-linecap="butt" stroke-width="9.899918" target-height="7.4249268" target-width="5.444824" target-x="725.1633" target-y="602.83563"></path></g><g node-id="1085"><path d="M 729.12 508.29 L 725.66 510.77 L 728.13 511.76 L 730.11 514.23 L 732.59 512.25 L 730.61 508.79 L 729.62 508.29 L 729.12 508.29 Z" fill="#403430" fill-rule="nonzero" group-id="46" node-id="693" stroke-linecap="butt" stroke-width="9.899918" target-height="5.939972" target-width="6.9299316" target-x="725.6582" target-y="508.2914"></path></g><g node-id="1086"><path d="M 765.26 498.39 L 766.74 501.36 L 766.74 503.84 L 769.71 504.33 L 770.21 500.37 L 769.71 498.89 L 765.26 498.39 Z" fill="#403430" fill-rule="nonzero" group-id="47" node-id="698" stroke-linecap="butt" stroke-width="9.899918" target-height="5.939972" target-width="4.949951" target-x="765.2578" target-y="498.39148"></path></g><g node-id="1087"><path d="M 786.54 506.31 L 785.06 508.79 L 788.03 510.27 L 790.01 506.81 L 790.01 505.32 L 786.05 503.34 L 786.54 505.32 L 786.54 506.31 Z" fill="#403430" fill-rule="nonzero" group-id="48" node-id="703" stroke-linecap="butt" stroke-width="9.899918" target-height="6.929962" target-width="4.949951" target-x="785.0576" target-y="503.34143"></path></g><g node-id="1088"><path d="M 776.15 500.37 L 776.64 502.85 L 776.15 505.82 L 779.12 506.81 L 780.60 502.85 L 780.11 501.36 L 776.15 500.37 Z" fill="#403430" fill-rule="nonzero" group-id="49" node-id="708" stroke-linecap="butt" stroke-width="9.899918" target-height="6.434967" target-width="4.455078" target-x="776.1477" target-y="500.37146"></path></g><g node-id="1089"><path d="M 748.43 499.88 L 744.47 501.36 L 745.95 502.35 L 746.45 502.85 L 747.44 505.82 L 750.41 504.83 L 749.91 501.36 L 748.43 499.88 Z" fill="#403430" fill-rule="nonzero" group-id="50" node-id="713" stroke-linecap="butt" stroke-width="9.899918" target-height="5.939911" target-width="5.9401855" target-x="744.4678" target-y="499.8765"></path></g><g node-id="1090"><path d="M 718.23 525.12 L 715.26 522.65 L 713.78 522.65 L 711.30 526.11 L 713.78 526.11 L 716.25 527.60 L 718.23 525.12 Z" fill="#403430" fill-rule="nonzero" group-id="51" node-id="718" stroke-linecap="butt" stroke-width="9.899918" target-height="4.949951" target-width="6.9296875" target-x="711.30347" target-y="522.6463"></path></g><g node-id="1091"><path d="M 709.32 541.95 L 705.36 540.96 L 703.88 541.46 L 702.89 545.42 L 705.36 544.43 L 708.33 545.42 L 709.32 541.95 Z" fill="#403430" fill-rule="nonzero" group-id="52" node-id="723" stroke-linecap="butt" stroke-width="9.899918" target-height="4.454956" target-width="6.4348145" target-x="702.8884" target-y="540.9611"></path></g><g node-id="1092"><path d="M 759.32 498.39 L 754.86 498.89 L 756.84 501.36 L 756.84 504.33 L 760.31 503.84 L 760.31 499.88 L 759.32 498.39 Z" fill="#403430" fill-rule="nonzero" group-id="53" node-id="728" stroke-linecap="butt" stroke-width="9.899918" target-height="5.939972" target-width="5.444824" target-x="754.86304" target-y="498.39148"></path></g><g node-id="1093"><path d="M 738.53 503.34 L 734.57 504.83 L 737.04 506.31 L 738.53 509.28 L 741.50 507.80 L 740.01 504.33 L 738.53 503.34 Z" fill="#403430" fill-rule="nonzero" group-id="54" node-id="733" stroke-linecap="butt" stroke-width="9.899918" target-height="5.939972" target-width="6.930176" target-x="734.5679" target-y="503.34143"></path></g><g node-id="1094"><path d="M 713.28 533.04 L 709.82 531.56 L 707.84 531.56 L 706.35 535.52 L 707.84 535.02 L 708.83 535.02 L 711.80 536.01 L 713.28 533.04 Z" fill="#403430" fill-rule="nonzero" group-id="55" node-id="738" stroke-linecap="butt" stroke-width="9.899918" target-height="4.454956" target-width="6.9296875" target-x="706.3535" target-y="531.5562"></path></g><g node-id="1095"><path d="M 707.34 551.36 L 703.38 550.86 L 701.90 551.85 L 701.40 555.81 L 703.88 554.33 L 706.85 554.82 L 707.34 551.36 Z" fill="#403430" fill-rule="nonzero" group-id="56" node-id="743" stroke-linecap="butt" stroke-width="9.899918" target-height="4.950012" target-width="5.9396973" target-x="701.40356" target-y="550.861"></path></g><g node-id="1096"><path d="M 795.45 511.26 L 793.47 513.74 L 796.44 515.72 L 798.92 512.75 L 798.92 510.77 L 795.45 508.29 L 795.45 511.26 Z" fill="#403430" fill-rule="nonzero" group-id="57" node-id="748" stroke-linecap="butt" stroke-width="9.899918" target-height="7.4249573" target-width="5.444824" target-x="793.47266" target-y="508.2914"></path></g><g node-id="1097"><path d="M 725.16 518.19 L 722.19 515.22 L 720.71 514.73 L 717.74 517.70 L 720.71 518.19 L 722.69 520.17 L 725.16 518.19 Z" fill="#403430" fill-rule="nonzero" group-id="58" node-id="753" stroke-linecap="butt" stroke-width="9.899918" target-height="5.4449463" target-width="7.425049" target-x="717.7383" target-y="514.7264"></path></g><g node-id="1098"><path d="M 803.37 517.70 L 800.90 519.68 L 803.37 522.15 L 806.34 519.68 L 806.84 518.19 L 803.87 515.22 L 803.37 517.70 Z" fill="#403430" fill-rule="nonzero" group-id="59" node-id="758" stroke-linecap="butt" stroke-width="9.899918" target-height="6.9299316" target-width="5.9401855" target-x="800.89746" target-y="515.2214"></path></g><g node-id="1099"><path d="M 729.62 527.10 L 722.15 536.68 L 717.75 547.28 L 716.25 559.28 L 717.74 571.28 L 722.14 582.06 L 729.62 591.95 L 739.21 599.38 L 749.97 603.80 L 762.29 605.31 L 774.28 603.81 L 784.88 599.41 L 794.46 591.95 L 801.94 582.06 L 806.34 571.28 L 807.83 559.28 L 806.33 547.28 L 801.93 536.68 L 794.46 527.10 L 784.88 519.64 L 774.28 515.24 L 762.29 513.74 L 749.97 515.25 L 739.21 519.66 L 729.62 527.10 Z" fill="#fdfdfd" fill-rule="nonzero" group-id="60" node-id="763" stroke-linecap="butt" stroke-width="9.899918" target-height="91.57422" target-width="91.57422" target-x="716.2534" target-y="513.7364"></path></g><g node-id="1100"><path d="M 735.06 532.55 L 726.92 544.62 L 724.17 559.28 L 726.92 573.93 L 735.06 586.01 L 747.59 594.56 L 762.29 597.39 L 776.56 594.58 L 789.02 586.01 L 797.17 573.93 L 799.91 559.28 L 797.20 544.97 L 789.02 532.55 L 776.94 524.40 L 762.29 521.66 L 747.55 524.38 L 735.06 532.55 Z" fill="#403430" fill-rule="nonzero" group-id="61" node-id="768" stroke-linecap="butt" stroke-width="9.899918" target-height="75.734375" target-width="75.734375" target-x="724.1731" target-y="521.6563"></path></g><g node-id="1101"><path d="M 722.19 550.86 L 759.81 565.71 L 764.27 552.84 L 724.67 542.45 L 722.19 550.86 Z" fill="#dad1d1" fill-rule="nonzero" group-id="62" node-id="773" stroke-linecap="butt" stroke-width="9.899918" target-height="23.26477" target-width="42.074707" target-x="722.1931" target-y="542.44617"></path></g><g node-id="1102"><path d="M 767.24 563.24 L 756.84 555.32 L 734.57 589.47 L 741.50 594.42 L 767.24 563.24 Z" fill="#dad1d1" fill-rule="nonzero" group-id="63" node-id="778" stroke-linecap="butt" stroke-width="9.899918" target-height="39.104675" target-width="32.66992" target-x="734.5679" target-y="555.31604"></path></g><g node-id="1103"><path d="M 767.24 555.32 L 756.84 563.24 L 782.58 594.42 L 789.51 589.47 L 767.24 555.32 Z" fill="#dad1d1" fill-rule="nonzero" group-id="64" node-id="783" stroke-linecap="butt" stroke-width="9.899918" target-height="39.104675" target-width="32.66992" target-x="756.8428" target-y="555.31604"></path></g><g node-id="1104"><path d="M 799.41 542.45 L 759.81 552.84 L 764.27 565.71 L 801.89 550.86 L 799.41 542.45 Z" fill="#dad1d1" fill-rule="nonzero" group-id="65" node-id="788" stroke-linecap="butt" stroke-width="9.899918" target-height="23.26477" target-width="42.074707" target-x="759.813" target-y="542.44617"></path></g><g node-id="1105"><path d="M 757.83 518.69 L 755.36 559.28 L 768.72 559.28 L 766.25 518.69 L 757.83 518.69 Z" fill="#dad1d1" fill-rule="nonzero" group-id="66" node-id="793" stroke-linecap="butt" stroke-width="9.899918" target-height="40.58966" target-width="13.36499" target-x="755.3579" target-y="518.68634"></path></g><g node-id="1106"><path d="M 752.39 549.38 L 749.39 554.14 L 748.43 559.28 L 749.43 564.76 L 752.39 569.18 L 756.80 572.13 L 762.29 573.14 L 767.34 572.15 L 771.69 569.18 L 774.65 564.76 L 775.65 559.28 L 774.69 554.14 L 771.69 549.38 L 767.34 546.40 L 762.29 545.42 L 756.80 546.42 L 752.39 549.38 Z" fill="#fdfdfd" fill-rule="nonzero" group-id="67" node-id="798" stroke-linecap="butt" stroke-width="9.899918" target-height="27.719788" target-width="27.224854" target-x="748.428" target-y="545.4161"></path></g><g node-id="1107"><path d="M 314.81 523.14 L 314.81 522.15 L 310.85 517.20 L 310.85 518.19 L 310.36 519.68 L 307.39 522.15 L 304.91 519.68 L 307.39 517.70 L 307.88 515.22 L 307.88 514.23 L 302.93 510.27 L 302.93 512.75 L 300.46 515.72 L 297.49 513.74 L 299.47 511.26 L 299.47 507.80 L 294.02 504.33 L 294.02 506.81 L 292.04 510.27 L 289.07 508.79 L 290.56 506.31 L 290.56 505.32 L 290.06 503.34 L 290.06 502.85 L 283.63 500.37 L 284.12 501.36 L 284.62 502.85 L 283.13 506.81 L 280.16 505.82 L 280.66 502.85 L 280.16 500.37 L 279.67 499.88 L 279.67 499.38 L 273.23 498.39 L 273.73 498.89 L 274.22 500.37 L 273.73 504.33 L 270.76 503.84 L 270.76 501.36 L 269.27 498.39 L 269.27 497.90 L 262.84 497.90 L 263.33 498.39 L 264.32 499.88 L 264.32 503.84 L 260.86 504.33 L 260.86 501.36 L 258.88 498.89 L 258.38 498.39 L 251.95 499.38 L 253.93 501.36 L 254.42 504.83 L 251.45 505.82 L 250.46 502.85 L 249.97 502.35 L 248.48 501.36 L 248.48 500.87 L 247.99 500.87 L 242.05 502.85 L 242.54 503.34 L 244.03 504.33 L 245.51 507.80 L 242.54 509.28 L 241.06 506.31 L 238.58 504.83 L 238.09 504.83 L 232.64 507.80 L 233.14 508.29 L 233.63 508.29 L 234.62 508.79 L 236.60 512.25 L 234.13 514.23 L 232.15 511.76 L 229.67 510.77 L 229.18 510.77 L 229.18 510.27 L 224.23 514.73 L 224.72 514.73 L 226.21 515.22 L 229.18 518.19 L 226.70 520.17 L 224.72 518.19 L 221.75 517.70 L 220.76 517.70 L 216.80 522.65 L 219.28 522.65 L 222.25 525.12 L 220.27 527.60 L 217.79 526.11 L 214.33 526.11 L 211.36 531.56 L 213.83 531.56 L 217.30 533.04 L 215.81 536.01 L 212.84 535.02 L 211.85 535.02 L 210.37 535.52 L 209.38 535.52 L 207.40 541.46 L 207.89 541.46 L 209.38 540.96 L 213.34 541.95 L 212.35 545.42 L 209.38 544.43 L 206.90 545.42 L 206.41 545.42 L 205.91 545.91 L 204.92 551.85 L 205.91 551.85 L 207.40 550.86 L 211.36 551.36 L 210.86 554.82 L 207.89 554.33 L 205.42 555.81 L 204.92 556.31 L 204.43 557.79 L 204.92 562.74 L 205.42 562.25 L 206.90 561.26 L 210.37 561.26 L 210.86 564.23 L 207.89 564.72 L 205.91 566.70 L 205.42 566.70 L 204.92 567.20 L 205.91 572.64 L 206.41 573.14 L 207.89 571.65 L 211.85 570.66 L 212.35 574.13 L 209.87 574.62 L 208.88 575.61 L 207.89 577.10 L 207.40 577.10 L 207.40 577.59 L 209.38 583.53 L 209.87 583.04 L 210.86 581.55 L 214.33 580.07 L 215.81 583.04 L 213.34 584.52 L 211.85 586.50 L 211.36 587.00 L 211.36 587.49 L 214.82 592.94 L 214.82 592.44 L 215.32 591.95 L 215.81 590.96 L 218.78 588.48 L 220.76 591.45 L 218.29 592.94 L 217.30 595.91 L 217.30 596.40 L 221.26 601.35 L 221.26 600.36 L 221.75 598.88 L 224.72 596.40 L 227.20 598.88 L 225.22 600.86 L 224.23 603.83 L 224.23 604.32 L 229.18 608.28 L 229.18 606.30 L 231.65 602.84 L 234.62 604.82 L 232.64 607.29 L 232.64 610.76 L 238.58 614.22 L 238.09 613.23 L 238.09 611.75 L 240.07 608.28 L 243.04 609.77 L 241.55 612.24 L 241.55 613.23 L 242.05 615.21 L 242.05 615.71 L 248.48 618.18 L 247.99 617.19 L 247.49 615.71 L 248.98 612.24 L 251.95 613.23 L 251.45 615.71 L 251.95 618.68 L 252.44 618.68 L 252.44 619.17 L 258.88 620.16 L 258.38 619.67 L 257.89 618.18 L 258.38 614.22 L 261.35 614.72 L 261.35 617.69 L 262.84 620.16 L 262.84 620.66 L 269.27 620.66 L 268.78 620.16 L 268.28 618.68 L 267.79 614.72 L 271.25 614.72 L 271.25 617.69 L 273.23 619.67 L 273.23 620.16 L 273.73 620.16 L 280.16 619.17 L 279.67 618.68 L 278.18 617.69 L 277.69 613.73 L 280.66 612.74 L 281.65 615.71 L 284.12 618.18 L 290.06 615.71 L 289.57 615.21 L 288.08 614.72 L 286.60 610.76 L 289.57 609.27 L 291.05 612.24 L 293.53 613.73 L 294.02 614.22 L 299.47 610.76 L 298.97 610.26 L 298.48 610.26 L 297.49 609.77 L 295.51 606.30 L 297.98 604.82 L 299.96 606.80 L 302.44 607.79 L 302.93 608.28 L 306.40 605.81 L 307.88 604.32 L 307.39 603.83 L 305.90 603.33 L 302.93 600.86 L 305.41 598.38 L 307.39 600.36 L 310.36 600.86 L 311.35 600.86 L 315.31 596.40 L 314.32 595.91 L 312.83 595.91 L 309.86 593.43 L 311.84 590.96 L 314.32 592.44 L 317.78 592.44 L 320.75 587.00 L 320.26 587.00 L 318.28 587.49 L 314.81 585.51 L 316.30 582.54 L 319.27 583.53 L 321.74 583.53 L 322.24 583.04 L 322.73 583.04 L 324.71 577.10 L 324.22 577.59 L 322.73 577.59 L 318.77 576.60 L 319.76 573.63 L 322.73 574.13 L 325.21 573.14 L 326.20 573.14 L 327.19 566.70 L 326.20 567.20 L 324.71 567.69 L 321.25 567.20 L 321.25 563.73 L 324.22 564.23 L 326.69 562.74 L 327.19 562.74 L 327.19 562.25 L 327.68 560.76 L 327.19 555.81 L 325.70 557.30 L 321.74 557.30 L 321.25 554.33 L 324.22 553.83 L 326.20 552.35 L 326.69 551.85 L 327.19 551.85 L 325.70 545.42 L 324.22 546.90 L 320.26 547.89 L 319.76 544.92 L 322.24 543.93 L 324.71 541.46 L 324.71 540.96 L 322.73 535.02 L 322.24 536.01 L 321.25 537.00 L 317.78 538.49 L 316.30 535.52 L 318.77 534.53 L 320.26 532.05 L 320.75 531.56 L 320.75 531.06 L 317.29 525.62 L 317.29 526.61 L 316.79 528.09 L 313.33 530.07 L 311.35 527.10 L 313.82 525.62 L 314.81 523.14 Z" fill="#1d1715" fill-rule="nonzero" group-id="68" node-id="803" stroke-linecap="butt" stroke-width="9.899918" target-height="122.75903" target-width="123.25415" target-x="204.42749" target-y="497.89648"></path></g><g node-id="1108"><path d="M 314.81 523.14 L 313.82 525.62 L 311.35 527.10 L 313.33 530.07 L 316.79 528.09 L 317.29 526.61 L 314.81 523.14 Z" fill="#403430" fill-rule="nonzero" group-id="69" node-id="808" stroke-linecap="butt" stroke-width="9.899918" target-height="6.9299316" target-width="5.9399414" target-x="311.34644" target-y="523.1413"></path></g><g node-id="1109"><path d="M 301.45 525.62 L 291.46 517.57 L 280.21 512.67 L 267.29 510.77 L 254.63 512.04 L 243.20 516.43 L 232.64 524.13 L 224.54 534.11 L 219.47 545.37 L 217.30 558.29 L 218.59 571.26 L 223.00 582.67 L 230.66 592.94 L 240.94 601.03 L 252.21 605.91 L 264.82 607.79 L 277.49 606.79 L 288.90 602.57 L 299.47 594.92 L 307.81 584.90 L 312.87 573.65 L 314.81 560.76 L 313.53 547.77 L 309.13 536.19 L 301.45 525.62 Z" fill="#403430" fill-rule="nonzero" group-id="70" node-id="813" stroke-linecap="butt" stroke-width="9.899918" target-height="97.019196" target-width="97.51416" target-x="217.29736" target-y="510.7664"></path></g><g node-id="1110"><path d="M 305.41 598.38 L 302.93 600.86 L 305.90 603.33 L 307.39 603.83 L 310.36 600.86 L 307.39 600.36 L 305.41 598.38 Z" fill="#403430" fill-rule="nonzero" group-id="71" node-id="818" stroke-linecap="butt" stroke-width="9.899918" target-height="5.4449463" target-width="7.4248047" target-x="302.9319" target-y="598.3807"></path></g><g node-id="1111"><path d="M 311.84 590.96 L 309.86 593.43 L 312.83 595.91 L 314.32 595.91 L 316.79 592.44 L 314.32 592.44 L 311.84 590.96 Z" fill="#403430" fill-rule="nonzero" group-id="72" node-id="823" stroke-linecap="butt" stroke-width="9.899918" target-height="4.949951" target-width="6.9299316" target-x="309.86157" target-y="590.95575"></path></g><g node-id="1112"><path d="M 286.60 610.76 L 288.08 614.72 L 289.57 615.21 L 293.53 613.73 L 291.05 612.24 L 289.57 609.27 L 286.60 610.76 Z" fill="#403430" fill-rule="nonzero" group-id="73" node-id="828" stroke-linecap="butt" stroke-width="9.899918" target-height="5.9399414" target-width="6.930176" target-x="286.59668" target-y="609.27057"></path></g><g node-id="1113"><path d="M 297.49 609.77 L 298.48 610.26 L 298.97 610.26 L 302.44 607.79 L 299.96 606.80 L 297.98 604.82 L 295.51 606.30 L 297.49 609.77 Z" fill="#403430" fill-rule="nonzero" group-id="74" node-id="833" stroke-linecap="butt" stroke-width="9.899918" target-height="5.4449463" target-width="6.9296875" target-x="295.50684" target-y="604.8156"></path></g><g node-id="1114"><path d="M 316.30 582.54 L 314.81 585.51 L 318.28 587.49 L 320.26 587.00 L 321.74 583.53 L 319.27 583.53 L 316.30 582.54 Z" fill="#403430" fill-rule="nonzero" group-id="75" node-id="838" stroke-linecap="butt" stroke-width="9.899918" target-height="4.950012" target-width="6.930176" target-x="314.81152" target-y="582.5408"></path></g><g node-id="1115"><path d="M 324.22 553.83 L 321.25 554.33 L 321.74 557.30 L 325.70 557.30 L 326.69 556.31 L 326.20 552.35 L 324.22 553.83 Z" fill="#403430" fill-rule="nonzero" group-id="76" node-id="843" stroke-linecap="butt" stroke-width="9.899918" target-height="4.949951" target-width="5.4453125" target-x="321.24634" target-y="552.34607"></path></g><g node-id="1116"><path d="M 277.69 613.73 L 278.18 617.69 L 279.67 618.68 L 283.63 617.69 L 281.65 615.71 L 280.66 612.74 L 277.69 613.73 Z" fill="#403430" fill-rule="nonzero" group-id="77" node-id="848" stroke-linecap="butt" stroke-width="9.899918" target-height="5.9400024" target-width="5.9401855" target-x="277.68677" target-y="612.73553"></path></g><g node-id="1117"><path d="M 319.76 573.63 L 318.77 576.60 L 322.73 577.59 L 324.22 577.59 L 325.21 573.14 L 322.73 574.13 L 319.76 573.63 Z" fill="#403430" fill-rule="nonzero" group-id="78" node-id="853" stroke-linecap="butt" stroke-width="9.899918" target-height="4.454956" target-width="6.4350586" target-x="318.77148" target-y="573.13586"></path></g><g node-id="1118"><path d="M 322.24 543.93 L 319.76 544.92 L 320.26 547.89 L 324.22 546.90 L 325.21 545.91 L 324.22 541.95 L 322.24 543.93 Z" fill="#403430" fill-rule="nonzero" group-id="79" node-id="858" stroke-linecap="butt" stroke-width="9.899918" target-height="5.9399414" target-width="5.4450684" target-x="319.76147" target-y="541.9512"></path></g><g node-id="1119"><path d="M 318.77 534.53 L 316.30 535.52 L 317.78 538.49 L 321.25 537.00 L 322.24 536.01 L 320.26 532.05 L 318.77 534.53 Z" fill="#403430" fill-rule="nonzero" group-id="80" node-id="863" stroke-linecap="butt" stroke-width="9.899918" target-height="6.4349365" target-width="5.9401855" target-x="316.2964" target-y="532.0512"></path></g><g node-id="1120"><path d="M 324.22 564.23 L 321.25 563.73 L 321.25 567.20 L 324.71 567.69 L 326.20 567.20 L 326.69 562.74 L 324.22 564.23 Z" fill="#403430" fill-rule="nonzero" group-id="81" node-id="868" stroke-linecap="butt" stroke-width="9.899918" target-height="4.949951" target-width="5.4453125" target-x="321.24634" target-y="562.74097"></path></g><g node-id="1121"><path d="M 215.81 590.96 L 215.32 591.95 L 214.82 592.44 L 217.30 595.91 L 218.29 592.94 L 220.76 591.45 L 218.78 588.48 L 215.81 590.96 Z" fill="#403430" fill-rule="nonzero" group-id="82" node-id="873" stroke-linecap="butt" stroke-width="9.899918" target-height="7.4249268" target-width="5.9399414" target-x="214.82227" target-y="588.4808"></path></g><g node-id="1122"><path d="M 214.33 580.07 L 210.86 581.55 L 209.87 583.04 L 211.85 586.50 L 213.34 584.52 L 215.81 583.04 L 214.33 580.07 Z" fill="#403430" fill-rule="nonzero" group-id="83" node-id="878" stroke-linecap="butt" stroke-width="9.899918" target-height="6.4349976" target-width="5.9399414" target-x="209.87231" target-y="580.0658"></path></g><g node-id="1123"><path d="M 267.79 614.72 L 268.28 618.68 L 268.78 620.16 L 273.23 619.67 L 271.25 617.69 L 271.25 614.72 L 267.79 614.72 Z" fill="#403430" fill-rule="nonzero" group-id="84" node-id="883" stroke-linecap="butt" stroke-width="9.899918" target-height="5.4449463" target-width="5.4450684" target-x="267.78687" target-y="614.7155"></path></g><g node-id="1124"><path d="M 224.72 596.40 L 221.75 598.88 L 221.26 600.36 L 224.23 603.83 L 225.22 600.86 L 227.20 598.88 L 224.72 596.40 Z" fill="#403430" fill-rule="nonzero" group-id="85" node-id="888" stroke-linecap="butt" stroke-width="9.899918" target-height="7.4249268" target-width="5.9396973" target-x="221.25757" target-y="596.4007"></path></g><g node-id="1125"><path d="M 206.90 561.26 L 205.42 562.25 L 205.91 566.70 L 207.89 564.72 L 210.86 564.23 L 210.37 561.26 L 206.90 561.26 Z" fill="#403430" fill-rule="nonzero" group-id="86" node-id="893" stroke-linecap="butt" stroke-width="9.899918" target-height="5.4449463" target-width="5.444824" target-x="205.41748" target-y="561.256"></path></g><g node-id="1126"><path d="M 211.85 570.66 L 207.89 571.65 L 206.90 572.64 L 207.89 577.10 L 208.88 575.61 L 209.87 574.62 L 212.35 574.13 L 211.85 570.66 Z" fill="#403430" fill-rule="nonzero" group-id="87" node-id="898" stroke-linecap="butt" stroke-width="9.899918" target-height="6.4349365" target-width="5.444824" target-x="206.90259" target-y="570.6609"></path></g><g node-id="1127"><path d="M 248.98 612.24 L 247.49 615.71 L 247.99 617.19 L 251.95 618.68 L 251.45 615.71 L 251.95 613.23 L 248.98 612.24 Z" fill="#403430" fill-rule="nonzero" group-id="88" node-id="903" stroke-linecap="butt" stroke-width="9.899918" target-height="6.4349976" target-width="4.454834" target-x="247.49219" target-y="612.24054"></path></g><g node-id="1128"><path d="M 258.38 614.22 L 257.89 618.18 L 258.38 619.67 L 262.84 620.16 L 261.35 617.69 L 261.35 614.72 L 258.38 614.22 Z" fill="#403430" fill-rule="nonzero" group-id="89" node-id="908" stroke-linecap="butt" stroke-width="9.899918" target-height="5.9398804" target-width="4.949951" target-x="257.88696" target-y="614.2206"></path></g><g node-id="1129"><path d="M 240.07 608.28 L 238.09 611.75 L 238.09 613.23 L 242.05 615.21 L 241.55 613.23 L 241.55 612.24 L 243.04 609.77 L 240.07 608.28 Z" fill="#403430" fill-rule="nonzero" group-id="90" node-id="913" stroke-linecap="butt" stroke-width="9.899918" target-height="6.9298706" target-width="4.949951" target-x="238.08716" target-y="608.28064"></path></g><g node-id="1130"><path d="M 231.65 602.84 L 229.18 606.30 L 229.18 607.79 L 232.64 610.26 L 232.64 607.29 L 234.62 604.82 L 231.65 602.84 Z" fill="#403430" fill-rule="nonzero" group-id="91" node-id="918" stroke-linecap="butt" stroke-width="9.899918" target-height="7.4249268" target-width="5.444824" target-x="229.17725" target-y="602.83563"></path></g><g node-id="1131"><path d="M 233.14 508.29 L 229.67 510.77 L 232.15 511.76 L 234.13 514.23 L 236.60 512.25 L 234.62 508.79 L 233.63 508.29 L 233.14 508.29 Z" fill="#403430" fill-rule="nonzero" group-id="92" node-id="923" stroke-linecap="butt" stroke-width="9.899918" target-height="5.939972" target-width="6.930176" target-x="229.67212" target-y="508.2914"></path></g><g node-id="1132"><path d="M 269.27 498.39 L 270.76 501.36 L 270.76 503.84 L 273.73 504.33 L 274.22 500.37 L 273.73 498.89 L 269.27 498.39 Z" fill="#403430" fill-rule="nonzero" group-id="93" node-id="928" stroke-linecap="butt" stroke-width="9.899918" target-height="5.939972" target-width="4.949951" target-x="269.27173" target-y="498.39148"></path></g><g node-id="1133"><path d="M 290.56 506.31 L 289.07 508.79 L 292.04 510.27 L 294.02 506.81 L 294.02 505.32 L 290.06 503.34 L 290.56 505.32 L 290.56 506.31 Z" fill="#403430" fill-rule="nonzero" group-id="94" node-id="933" stroke-linecap="butt" stroke-width="9.899918" target-height="6.929962" target-width="4.949951" target-x="289.07178" target-y="503.34143"></path></g><g node-id="1134"><path d="M 280.16 500.37 L 280.66 502.85 L 280.16 505.82 L 283.13 506.81 L 284.62 502.85 L 284.12 501.36 L 280.16 500.37 Z" fill="#403430" fill-rule="nonzero" group-id="95" node-id="938" stroke-linecap="butt" stroke-width="9.899918" target-height="6.434967" target-width="4.455078" target-x="280.16187" target-y="500.37146"></path></g><g node-id="1135"><path d="M 252.44 499.88 L 248.48 501.36 L 249.97 502.35 L 250.46 502.85 L 251.45 505.82 L 254.42 504.83 L 253.93 501.36 L 252.44 499.88 Z" fill="#403430" fill-rule="nonzero" group-id="96" node-id="943" stroke-linecap="butt" stroke-width="9.899918" target-height="5.939911" target-width="5.9396973" target-x="248.48218" target-y="499.8765"></path></g><g node-id="1136"><path d="M 222.25 525.12 L 219.28 522.65 L 217.79 522.65 L 215.32 526.11 L 217.79 526.11 L 220.27 527.60 L 222.25 525.12 Z" fill="#403430" fill-rule="nonzero" group-id="97" node-id="948" stroke-linecap="butt" stroke-width="9.899918" target-height="4.949951" target-width="6.9299316" target-x="215.31738" target-y="522.6463"></path></g><g node-id="1137"><path d="M 213.34 541.95 L 209.38 540.96 L 207.89 541.46 L 206.90 545.42 L 209.38 544.43 L 212.35 545.42 L 213.34 541.95 Z" fill="#403430" fill-rule="nonzero" group-id="98" node-id="953" stroke-linecap="butt" stroke-width="9.899918" target-height="4.454956" target-width="6.4348145" target-x="206.90259" target-y="540.9611"></path></g><g node-id="1138"><path d="M 263.33 498.39 L 258.88 498.89 L 260.86 501.36 L 260.86 504.33 L 264.32 503.84 L 264.32 499.88 L 263.33 498.39 Z" fill="#403430" fill-rule="nonzero" group-id="99" node-id="958" stroke-linecap="butt" stroke-width="9.899918" target-height="5.939972" target-width="5.444824" target-x="258.87695" target-y="498.39148"></path></g><g node-id="1139"><path d="M 242.54 503.34 L 238.58 504.83 L 241.06 506.31 L 242.54 509.28 L 245.51 507.80 L 244.03 504.33 L 242.54 503.34 Z" fill="#403430" fill-rule="nonzero" group-id="100" node-id="963" stroke-linecap="butt" stroke-width="9.899918" target-height="5.939972" target-width="6.9299316" target-x="238.58228" target-y="503.34143"></path></g><g node-id="1140"><path d="M 217.30 533.04 L 213.83 531.56 L 211.85 531.56 L 210.37 535.52 L 211.85 535.02 L 212.84 535.02 L 215.81 536.01 L 217.30 533.04 Z" fill="#403430" fill-rule="nonzero" group-id="101" node-id="968" stroke-linecap="butt" stroke-width="9.899918" target-height="4.454956" target-width="6.9299316" target-x="210.36743" target-y="531.5562"></path></g><g node-id="1141"><path d="M 211.36 551.36 L 207.40 550.86 L 205.91 551.85 L 205.42 555.81 L 207.89 554.33 L 210.86 554.82 L 211.36 551.36 Z" fill="#403430" fill-rule="nonzero" group-id="102" node-id="973" stroke-linecap="butt" stroke-width="9.899918" target-height="4.950012" target-width="5.9401855" target-x="205.41748" target-y="550.861"></path></g><g node-id="1142"><path d="M 299.47 511.26 L 297.49 513.74 L 300.46 515.72 L 302.93 512.75 L 302.93 510.77 L 299.47 508.29 L 299.47 511.26 Z" fill="#403430" fill-rule="nonzero" group-id="103" node-id="978" stroke-linecap="butt" stroke-width="9.899918" target-height="7.4249573" target-width="5.4453125" target-x="297.48657" target-y="508.2914"></path></g><g node-id="1143"><path d="M 229.18 518.19 L 226.21 515.22 L 224.72 514.73 L 221.75 517.70 L 224.72 518.19 L 226.70 520.17 L 229.18 518.19 Z" fill="#403430" fill-rule="nonzero" group-id="104" node-id="983" stroke-linecap="butt" stroke-width="9.899918" target-height="5.4449463" target-width="7.4248047" target-x="221.75244" target-y="514.7264"></path></g><g node-id="1144"><path d="M 304.91 519.68 L 307.39 522.15 L 310.36 519.68 L 310.85 518.19 L 307.88 515.22 L 307.39 517.70 L 304.91 519.68 Z" fill="#403430" fill-rule="nonzero" group-id="105" node-id="988" stroke-linecap="butt" stroke-width="9.899918" target-height="6.9299316" target-width="5.9399414" target-x="304.91162" target-y="515.2214"></path></g><g node-id="1145"><path d="M 233.63 527.10 L 226.17 536.68 L 221.77 547.28 L 220.27 559.28 L 221.76 571.28 L 226.15 582.06 L 233.63 591.95 L 243.22 599.38 L 253.98 603.80 L 266.30 605.31 L 278.29 603.81 L 288.89 599.41 L 298.48 591.95 L 305.96 582.06 L 310.35 571.28 L 311.84 559.28 L 310.34 547.28 L 305.94 536.68 L 298.48 527.10 L 288.89 519.64 L 278.29 515.24 L 266.30 513.74 L 253.98 515.25 L 243.22 519.66 L 233.63 527.10 Z" fill="#fdfdfd" fill-rule="nonzero" group-id="106" node-id="993" stroke-linecap="butt" stroke-width="9.899918" target-height="91.57422" target-width="91.57422" target-x="220.26733" target-y="513.7364"></path></g><g node-id="1146"><path d="M 239.08 532.55 L 230.93 544.62 L 228.19 559.28 L 230.93 573.93 L 239.08 586.01 L 251.60 594.56 L 266.30 597.39 L 280.57 594.58 L 293.03 586.01 L 301.18 573.93 L 303.92 559.28 L 301.22 544.97 L 293.03 532.55 L 280.95 524.40 L 266.30 521.66 L 251.57 524.38 L 239.08 532.55 Z" fill="#403430" fill-rule="nonzero" group-id="107" node-id="998" stroke-linecap="butt" stroke-width="9.899918" target-height="75.734375" target-width="75.734375" target-x="228.18726" target-y="521.6563"></path></g><g node-id="1147"><path d="M 226.21 550.86 L 263.83 565.71 L 268.28 552.84 L 228.68 542.45 L 226.21 550.86 Z" fill="#dad1d1" fill-rule="nonzero" group-id="108" node-id="1003" stroke-linecap="butt" stroke-width="9.899918" target-height="23.26477" target-width="42.074463" target-x="226.20752" target-y="542.44617"></path></g><g node-id="1148"><path d="M 271.25 563.24 L 260.86 555.32 L 238.58 589.47 L 245.51 594.42 L 271.25 563.24 Z" fill="#dad1d1" fill-rule="nonzero" group-id="109" node-id="1008" stroke-linecap="butt" stroke-width="9.899918" target-height="39.104675" target-width="32.669678" target-x="238.58228" target-y="555.31604"></path></g><g node-id="1149"><path d="M 271.25 555.32 L 260.86 563.24 L 286.60 594.42 L 293.53 589.47 L 271.25 555.32 Z" fill="#dad1d1" fill-rule="nonzero" group-id="110" node-id="1013" stroke-linecap="butt" stroke-width="9.899918" target-height="39.104675" target-width="32.669678" target-x="260.85718" target-y="555.31604"></path></g><g node-id="1150"><path d="M 303.43 542.45 L 263.83 552.84 L 268.28 565.71 L 305.90 550.86 L 303.43 542.45 Z" fill="#dad1d1" fill-rule="nonzero" group-id="111" node-id="1018" stroke-linecap="butt" stroke-width="9.899918" target-height="23.26477" target-width="42.074707" target-x="263.8269" target-y="542.44617"></path></g><g node-id="1151"><path d="M 261.85 518.69 L 259.37 559.28 L 272.74 559.28 L 270.26 518.69 L 261.85 518.69 Z" fill="#dad1d1" fill-rule="nonzero" group-id="112" node-id="1023" stroke-linecap="butt" stroke-width="9.899918" target-height="40.58966" target-width="13.36499" target-x="259.37183" target-y="518.68634"></path></g><g node-id="1152"><path d="M 256.40 549.38 L 253.41 554.14 L 252.44 559.28 L 253.45 564.76 L 256.40 569.18 L 260.82 572.13 L 266.30 573.14 L 271.36 572.15 L 275.71 569.18 L 278.66 564.76 L 279.67 559.28 L 278.70 554.14 L 275.71 549.38 L 271.36 546.40 L 266.30 545.42 L 260.82 546.42 L 256.40 549.38 Z" fill="#fdfdfd" fill-rule="nonzero" group-id="113" node-id="1028" stroke-linecap="butt" stroke-width="9.899918" target-height="27.719788" target-width="27.224854" target-x="252.44214" target-y="545.4161"></path></g><g node-id="1153"><path d="M 443.45 423.15 L 473.15 462.25 L 513.24 464.23 L 482.06 423.15 L 443.45 423.15 Z" fill="#ffffff" fill-opacity="0.2" fill-rule="nonzero" group-id="114" node-id="1033" stroke-linecap="butt" stroke-width="9.899918" target-height="41.084656" target-width="69.79443" target-x="443.45" target-y="423.15"></path></g><path d="M 487.01 423.15 L 518.69 464.73 L 531.56 465.22 L 499.88 423.15 L 487.01 423.15 Z" fill="#ffffff" fill-opacity="0.2" fill-rule="nonzero" group-id="115" node-id="1038" stroke-linecap="butt" stroke-width="9.899918" target-height="42.074646" target-width="44.54962" target-x="487.00964" target-y="423.15"></path></svg>