<?xml version="1.0" encoding="utf-8"?>
<!-- Generator: Adobe Illustrator 26.0.3, SVG Export Plug-In . SVG Version: 6.00 Build 0)  -->
<svg version="1.1" id="Calque_1" xmlns="http://www.w3.org/2000/svg" xmlns:xlink="http://www.w3.org/1999/xlink" x="0px" y="0px"
	 viewBox="0 0 873.07 807.87" style="enable-background:new 0 0 873.07 807.87;" xml:space="preserve">
<style type="text/css">
	.st0{fill:#000000;}
</style>
<g>
	<g>
		<g>
			<path class="st0" d="M138.64,519.49h-38.01v87.8h38.01c27.86,0,45.86-17.23,45.86-43.9C184.5,536.72,166.5,519.49,138.64,519.49z
				 M163.81,563.39c0,16.38-9.75,25.77-26.76,25.77h-15.97v-51.55h15.97C154.06,537.61,163.81,547.01,163.81,563.39z"/>
			<polygon class="st0" points="199.23,607.29 268.72,607.29 268.72,589.16 219.79,589.16 219.79,572.09 260.69,572.09 
				260.69,553.96 219.79,553.96 219.79,537.61 268.72,537.61 268.72,519.49 199.23,519.49 			"/>
			<polygon class="st0" points="328.75,519.49 307.9,519.49 307.9,607.29 372.83,607.29 372.83,589.16 328.75,589.16 			"/>
			<path class="st0" d="M399.21,531.88c0-8.98-4.86-14.56-12.69-14.56c-6.66,0-11.68,4.99-11.68,11.61c0,5.21,3.49,9.57,8.59,10.86
				c-1.31,3.49-4.29,6.09-8.29,7.2l-2.9,0.8l4.1,11.52l2.49-0.56C391.02,556,399.21,545.2,399.21,531.88z"/>
			<polygon class="st0" points="590.76,537.59 621.74,537.59 621.74,607.29 642.92,607.29 642.92,537.59 673.85,537.59 
				673.85,519.49 590.76,519.49 			"/>
			<path class="st0" d="M724.95,517.33c-27.14,0-47.61,19.75-47.61,45.95c0,26.32,20.47,46.17,47.61,46.17
				c27.08,0,47.49-19.85,47.49-46.17C772.44,537.08,752.02,517.33,724.95,517.33z M751.67,563.32c0,15.74-11.48,27.6-26.7,27.6
				c-15.56,0-26.86-11.61-26.86-27.6c0-15.66,11.55-27.46,26.86-27.46C740.19,535.85,751.67,547.66,751.67,563.32z"/>
			<path class="st0" d="M558.45,565.47c0,15.99-8.38,24.8-23.61,24.8c-15.22,0-23.61-8.81-23.61-24.8v-45.98H490.4v43.82
				c0,29.76,15.78,46.14,44.42,46.14c28.26,0,44.46-16.82,44.46-46.14v-43.82h-20.83V565.47z"/>
			<path class="st0" d="M442.61,520.04h-5.07l-47.65,87.8h23.33l4.42-8.87h43.6l4.64,8.87h24.38l-47.45-87.43L442.61,520.04z
				 M452.64,581.27h-26.32l13.78-27.62L452.64,581.27z"/>
		</g>
	</g>
	<g>
		<g>
			<g>
				<path class="st0" d="M374.8,161.37c14.83-20.06,38.55-33.06,65.28-33.06c26.74,0,50.46,13,65.29,33.06
					c12.13-1.76,22.72-4.08,30.78-6.96c-19.18-33.41-55-55.91-96.07-55.91c-41.06,0-76.89,22.5-96.07,55.91
					C352.08,157.29,362.67,159.61,374.8,161.37z"/>
				<path class="st0" d="M536.17,154.44c-6.51,5.59-13.8,13.67-21.38,23.36c4.27,9.96,6.65,20.93,6.65,32.47
					c0,42.06-31.45,76.7-71.94,81.4c-4.56,11.48-7.86,21.89-9.41,30.37c61.27,0,110.93-50.04,110.93-111.76
					C551.02,189.92,545.59,170.87,536.17,154.44z"/>
				<path class="st0" d="M358.74,210.27c0-11.54,2.38-22.51,6.65-32.47c-7.58-9.7-14.87-17.77-21.38-23.36
					c-9.43,16.43-14.85,35.49-14.85,55.83c0,61.73,49.66,111.76,110.93,111.76c-1.55-8.48-4.85-18.89-9.41-30.37
					C390.18,286.96,358.74,252.33,358.74,210.27z"/>
			</g>
		</g>
	</g>
	<g>
		<path class="st0" d="M338.41,382.03h6.5l61.2,51.44v-51.44h22.87v94.13h-6.5l-61.2-51.44v51.44h-22.87V382.03z"/>
		<polygon class="st0" points="196.85,382.03 151.99,419.95 107.13,382.03 100.63,382.03 100.63,476.16 123.5,476.16 123.5,424.72 
			150.9,449.07 153.08,449.07 180.48,424.72 180.48,476.16 203.35,476.16 203.35,382.03 		"/>
		<path class="st0" d="M451.27,382.03h41.22c29.65,0,49.02,19.24,49.02,45.97c0,27.48-19.36,48.16-49.02,48.16h-41.22V382.03z
			 M473.05,402.81v52.55h21.62c13.81,0,23.96-12.3,23.96-27.36c0-14.94-10.15-25.17-23.96-25.17L473.05,402.81z"/>
		<path class="st0" d="M556.93,382.03h24.89v94.13h-24.89V382.03z"/>
		<path class="st0" d="M772.44,476.16h-65.61v-94.13h23.63v73.33h41.98V476.16z"/>
		<path class="st0" d="M647.24,382.03h-5.85l-50.28,94.13h25.43l4.61-9.41h45h0l4.85,9.41h26.52L647.24,382.03z M644.32,419.25
			l12.42,27.8h-26.07L644.32,419.25z"/>
		<path class="st0" d="M220.78,428.97c0-28.42,21.87-49.13,50.17-49.13c28.17,0,50.04,20.71,50.04,49.13
			c0,28.41-21.87,49.38-50.04,49.38C242.64,478.35,220.78,457.38,220.78,428.97z M298.11,429.03c0-16.16-11.56-28.39-27.16-28.39
			c-15.75,0-27.3,12.22-27.3,28.39c0,16.3,11.56,28.52,27.3,28.52C286.56,457.55,298.11,445.33,298.11,429.03z"/>
	</g>
	<g>
		<path class="st0" d="M366.01,679.85c0,8.45-5.18,13.05-14.58,13.05H335.4v15.04h-7.29v-41.07h23.32
			C360.82,666.87,366.01,671.46,366.01,679.85z M358.54,679.85c0-4.53-2.65-6.7-8.13-6.7h-15v13.47h15
			C355.88,686.61,358.54,684.44,358.54,679.85z"/>
		<path class="st0" d="M461.05,707.94l-11.21-16.07h-13.25v16.07h-7.29v-41.07h24.46c9.04,0,13.98,4.41,13.98,12.5
			c0,6.64-3.37,10.81-9.58,12.08l11.57,16.49H461.05z M436.59,685.59h16.15c5.12,0,7.59-2.05,7.59-6.22c0-4.17-2.47-6.22-7.59-6.22
			h-16.15V685.59z"/>
		<path class="st0" d="M485.06,666.87h7.29v41.07h-7.29V666.87z"/>
		<path class="st0" d="M506.45,702.74l3.13-5.8c4.82,3.44,10.72,5.31,17.05,5.31c7.59,0,11.63-2.05,11.63-6.1
			c0-3.38-2.95-4.71-12.05-5.38c-13.13-1.03-17.95-4.23-17.95-12.02c0-7.91,6.69-12.62,18.01-12.62c6.75,0,12.47,1.69,17.11,4.95
			l-2.89,5.68c-3.98-2.84-8.86-4.23-14.28-4.23c-6.57,0-10.54,2.17-10.54,5.92c0,3.38,2.89,4.71,11.99,5.38
			c13.19,1.03,18.01,4.23,18.01,12.02c0,8.33-6.69,12.81-18.98,12.81C518.74,708.66,511.81,706.61,506.45,702.74z"/>
		<path class="st0" d="M395.27,666.87h-2.11l-21.89,41.07h8.11l3.99-7.73h21.39l3.84,7.73h8.56L395.27,666.87z M386.74,693.69
			l7.54-14.59l7.25,14.59H386.74z"/>
	</g>
</g>
</svg>
